<?xml version="1.0" encoding="utf-8"?>
<!-- Generator: Adobe Illustrator 16.0.0, SVG Export Plug-In . SVG Version: 6.00 Build 0)  -->
<!DOCTYPE svg PUBLIC "-//W3C//DTD SVG 1.1//EN" "http://www.w3.org/Graphics/SVG/1.1/DTD/svg11.dtd">
<svg version="1.1" id="Layer_1" xmlns="http://www.w3.org/2000/svg" xmlns:xlink="http://www.w3.org/1999/xlink" x="0px" y="0px"
	 width="353.934px" height="94.382px" viewBox="0 0 353.934 94.382" enable-background="new 0 0 353.934 94.382"
	 xml:space="preserve">
<g>
	<path fill="#EB8B34" stroke="#EB8B34" stroke-miterlimit="10" d="M100.869,42.968c0,1.827-0.217,4.215-0.649,7.165l-3.722,28.08
		h-14.41l4.068-30.147c0.058-0.512,0.086-0.914,0.086-1.202c0-1.41-0.31-2.66-0.93-3.75c-0.621-1.089-1.551-1.635-2.792-1.635
		c-1.414,0-2.885,0.585-4.414,1.755c-1.529,1.171-3.462,2.99-5.799,5.458l-3.895,29.523H53.959l8.958-66.645h14.281l-3.116,23.417
		c2.654-2.18,5.034-3.823,7.141-4.929c2.105-1.106,4.515-1.659,7.227-1.659c3.26,0,5.806,0.81,7.638,2.428
		c1.832,1.619,3.087,3.542,3.765,5.77C100.53,38.826,100.869,40.949,100.869,42.968z"/>
	<path fill="#EB8B34" stroke="#EB8B34" stroke-miterlimit="10" d="M153.792,29.264l-6.578,48.948h-14.368l0.736-5.721
		c-0.578,0.448-1.465,1.139-2.662,2.066c-1.197,0.932-2.308,1.684-3.332,2.26c-1.024,0.577-2.293,1.1-3.808,1.562
		c-1.515,0.465-3.066,0.697-4.652,0.697c-3.087,0-5.539-0.793-7.356-2.381c-1.818-1.587-3.087-3.518-3.809-5.794
		c-0.722-2.276-1.082-4.503-1.082-6.685c0-1.025,0.144-2.819,0.433-5.385l3.938-29.571h14.324l-3.981,30.532
		c-0.058,0.386-0.086,0.947-0.086,1.684c0,3.078,1.211,4.615,3.635,4.615c1.5,0,2.971-0.543,4.414-1.635
		c1.442-1.088,3.404-2.933,5.885-5.529l3.895-29.667h14.454V29.264z"/>
	<path fill="#EB8B34" stroke="#EB8B34" stroke-miterlimit="10" d="M204.033,43.257c0,0.961-0.146,2.773-0.434,5.433l-3.938,29.522
		h-14.324l3.979-30.532c0.06-0.384,0.088-0.945,0.088-1.683c0-3.078-1.213-4.616-3.635-4.616c-1.502,0-2.965,0.545-4.394,1.635
		c-1.429,1.09-3.397,2.95-5.907,5.577l-3.895,29.619H157.12l6.578-48.948h14.366l-0.735,5.722c2.655-2.116,4.983-3.742,6.989-4.88
		s4.494-1.707,7.465-1.707c4.501,0,7.667,1.547,9.5,4.64C203.116,36.133,204.033,39.539,204.033,43.257z"/>
	<path fill="#EB8B34" stroke="#EB8B34" stroke-miterlimit="10" d="M259.249,11.57l-8.438,65.971
		c-5.828,1.025-11.078,1.539-15.752,1.539c-8.106,0-14.418-2.147-18.934-6.442c-4.516-4.296-6.771-10.082-6.771-17.359
		c0-2.819,0.498-5.784,1.492-8.895c0.996-3.109,2.582-6.034,4.76-8.775c2.18-2.741,5.021-4.96,8.525-6.66
		c3.506-1.699,7.711-2.548,12.615-2.548c1.816,0,3.793,0.128,5.929,0.385l2.294-17.214L259.249,11.57L259.249,11.57z
		 M240.986,41.766c-0.316-0.032-0.778-0.048-1.385-0.048c-3.953,0-7.062,0.834-9.326,2.5c-2.264,1.667-3.808,3.567-4.629,5.698
		c-0.822,2.133-1.234,4.016-1.234,5.649c0,1.571,0.354,3.144,1.061,4.713c0.707,1.57,1.861,2.869,3.463,3.896
		c1.602,1.025,3.642,1.537,6.123,1.537c1.125,0,2.062-0.096,2.812-0.287L240.986,41.766z"/>
	<path fill="#EB8B34" stroke="#EB8B34" stroke-miterlimit="10" d="M303.128,50.757c0,2.309-0.202,4.697-0.606,7.164h-27.869
		c0,6.765,2.986,10.146,8.959,10.146c2.972,0,5.633-0.385,7.984-1.154s5.156-1.891,8.416-3.365l-2.207,12.021
		c-3.087,1.379-5.561,2.309-7.422,2.788c-1.859,0.481-4.205,0.724-7.031,0.724c-6.002,0-10.719-1.234-14.15-3.703
		c-3.434-2.469-5.771-5.418-7.012-8.848c-1.239-3.431-1.86-6.828-1.86-10.193c0-5.032,1.03-9.689,3.095-13.968
		c2.062-4.279,4.92-7.677,8.568-10.194c3.648-2.516,7.77-3.774,12.354-3.774c3.435,0,6.571,0.817,9.413,2.452
		c2.841,1.635,5.113,4.135,6.815,7.501C302.275,41.72,303.128,45.853,303.128,50.757z M289.193,49.267
		c0-0.225,0.007-0.439,0.021-0.648c0.015-0.209,0.021-0.521,0.021-0.938c0-5.513-1.717-8.27-5.148-8.27
		c-2.077,0-3.715,0.906-4.912,2.716c-1.197,1.812-2.314,4.192-3.354,7.141L289.193,49.267L289.193,49.267z"/>
</g>
<g>
	<path fill="#EB8B34" stroke="#EB8B34" stroke-miterlimit="10" d="M70.016,29.289l-7.623,12.08H34.868L31.97,57.333
		c-0.231,1.347-0.348,2.402-0.348,3.172c0,2.727,1.082,4.088,3.246,4.088c2.336,0,5.178-1.377,8.525-4.135l-0.823,14.81
		c-3.953,2.599-8.107,3.896-12.463,3.896c-1.904,0-3.766-0.377-5.583-1.129c-1.818-0.754-3.478-2.142-4.978-4.16
		c-1.789-2.34-2.683-5.416-2.683-9.23c0-1.698,0.158-3.479,0.476-5.337l2.986-17.936H12.19l1.947-12.021h8.222l1.688-9.76h14.541
		L36.9,29.35L70.016,29.289z"/>
</g>
<polyline fill="#EB8B34" stroke="#EB8B34" stroke-miterlimit="10" points="34.319,41.205 53.81,43.289 33.764,47.447 46.726,49.27 
	35.109,51.955 40.56,55.205 31.968,57.333 "/>
<path fill="#EB8B34" stroke="#EB8B34" stroke-miterlimit="10" d="M35.489,60.505"/>
<g>
	<path fill="#EB8B34" stroke="#EB8B34" stroke-miterlimit="10" d="M344.777,33.483l-6.795,15.481
		c-0.779-1.505-1.646-2.79-2.598-3.846c-0.952-1.058-2.163-1.587-3.636-1.587c-2.827,0-5.425,2.26-7.79,6.78l-0.737,5.554
		l0.625,3.139l-1.444,3.029l2.966,4.971l-4.521,3.666l5.833,3.334l-6.148,2.103l12.148,2.19h-26.723l6.578-48.948h14.281
		l-0.909,7.021c3.952-5.257,7.472-7.886,10.56-7.886c1.615,0,3.053,0.44,4.307,1.322C342.029,30.687,343.363,31.913,344.777,33.483z
		"/>
</g>
</svg>
