<?xml version="1.0" encoding="utf-8"?>
<!-- Generator: Adobe Illustrator 16.0.0, SVG Export Plug-In . SVG Version: 6.00 Build 0)  -->
<!DOCTYPE svg PUBLIC "-//W3C//DTD SVG 1.1//EN" "http://www.w3.org/Graphics/SVG/1.1/DTD/svg11.dtd">
<svg version="1.1" id="Layer_1" xmlns="http://www.w3.org/2000/svg" xmlns:xlink="http://www.w3.org/1999/xlink" x="0px" y="0px"
	 width="353.934px" height="94.382px" viewBox="0 0 353.934 94.382" enable-background="new 0 0 353.934 94.382"
	 xml:space="preserve">
<g enable-background="new    ">
	<path fill="#DCDCDC" d="M100.869,42.968c0,1.827-0.217,4.215-0.649,7.164l-3.722,28.081H82.088l4.068-30.148
		c0.058-0.512,0.086-0.914,0.086-1.202c0-1.41-0.31-2.66-0.93-3.75c-0.621-1.089-1.551-1.635-2.792-1.635
		c-1.414,0-2.885,0.585-4.414,1.755c-1.529,1.171-3.462,2.99-5.799,5.458l-3.895,29.523H53.959l8.958-66.644h14.281l-3.116,23.417
		c2.654-2.18,5.034-3.823,7.141-4.929c2.105-1.106,4.515-1.659,7.227-1.659c3.26,0,5.806,0.81,7.638,2.428
		c1.832,1.619,3.087,3.542,3.765,5.77C100.53,38.826,100.869,40.949,100.869,42.968z"/>
	<path fill="#DCDCDC" d="M153.792,29.264l-6.578,48.949h-14.368l0.736-5.722c-0.578,0.449-1.465,1.139-2.662,2.067
		c-1.197,0.931-2.308,1.683-3.332,2.26c-1.024,0.577-2.293,1.099-3.808,1.563c-1.515,0.464-3.066,0.697-4.652,0.697
		c-3.087,0-5.539-0.794-7.356-2.381c-1.818-1.587-3.087-3.518-3.809-5.794s-1.082-4.503-1.082-6.684c0-1.026,0.144-2.82,0.433-5.386
		l3.938-29.571h14.324l-3.981,30.533c-0.058,0.385-0.086,0.946-0.086,1.683c0,3.078,1.211,4.616,3.635,4.616
		c1.5,0,2.971-0.544,4.414-1.635c1.442-1.089,3.404-2.933,5.885-5.53l3.895-29.667H153.792z"/>
	<path fill="#DCDCDC" d="M204.033,43.257c0,0.961-0.146,2.773-0.434,5.433l-3.938,29.523h-14.324l3.98-30.533
		c0.059-0.384,0.087-0.945,0.087-1.683c0-3.078-1.212-4.616-3.635-4.616c-1.501,0-2.964,0.545-4.393,1.635
		c-1.429,1.09-3.397,2.95-5.907,5.577l-3.895,29.62h-14.454l6.578-48.949h14.367l-0.736,5.722c2.655-2.116,4.983-3.742,6.989-4.88
		c2.006-1.138,4.494-1.707,7.465-1.707c4.501,0,7.667,1.547,9.5,4.64C203.116,36.133,204.033,39.539,204.033,43.257z"/>
	<path fill="#DCDCDC" d="M259.249,11.57l-8.438,65.971c-5.828,1.025-11.078,1.539-15.752,1.539c-8.107,0-14.418-2.148-18.934-6.443
		c-4.516-4.296-6.771-10.082-6.771-17.359c0-2.82,0.497-5.785,1.492-8.895c0.996-3.109,2.582-6.034,4.76-8.775
		c2.179-2.741,5.021-4.96,8.525-6.66c3.506-1.699,7.711-2.548,12.615-2.548c1.817,0,3.793,0.128,5.929,0.385l2.294-17.214H259.249z
		 M240.986,41.766c-0.316-0.032-0.778-0.048-1.385-0.048c-3.952,0-7.061,0.834-9.325,2.5c-2.265,1.667-3.808,3.566-4.63,5.697
		c-0.822,2.133-1.234,4.016-1.234,5.65c0,1.571,0.354,3.143,1.061,4.713s1.861,2.869,3.463,3.895
		c1.601,1.025,3.641,1.538,6.123,1.538c1.125,0,2.062-0.096,2.812-0.288L240.986,41.766z"/>
	<path fill="#DCDCDC" d="M303.128,50.757c0,2.309-0.202,4.697-0.606,7.165h-27.869c0,6.764,2.986,10.146,8.959,10.146
		c2.971,0,5.632-0.385,7.984-1.154c2.351-0.77,5.156-1.891,8.416-3.365l-2.207,12.021c-3.087,1.378-5.561,2.308-7.422,2.788
		c-1.86,0.481-4.205,0.723-7.031,0.723c-6.002,0-10.719-1.234-14.151-3.703c-3.434-2.469-5.771-5.417-7.011-8.848
		c-1.24-3.43-1.861-6.828-1.861-10.193c0-5.032,1.031-9.689,3.095-13.968c2.062-4.279,4.919-7.677,8.568-10.194
		c3.649-2.516,7.769-3.774,12.354-3.774c3.434,0,6.571,0.817,9.413,2.452c2.841,1.635,5.113,4.135,6.815,7.501
		S303.128,45.853,303.128,50.757z M289.193,49.267c0-0.225,0.007-0.44,0.021-0.648c0.014-0.209,0.021-0.521,0.021-0.938
		c0-5.513-1.717-8.27-5.149-8.27c-2.077,0-3.715,0.906-4.912,2.716c-1.197,1.812-2.315,4.192-3.354,7.141H289.193z"/>
</g>
<g>
	<path fill="#DCDCDC" d="M70.016,29.289l-7.623,12.08H34.868l-2.898,15.964c-0.231,1.347-0.348,2.403-0.348,3.172
		c0,2.727,1.082,4.088,3.246,4.088c2.336,0,5.178-1.377,8.525-4.135l-0.823,14.81c-3.953,2.599-8.107,3.896-12.463,3.896
		c-1.904,0-3.766-0.377-5.583-1.129c-1.818-0.754-3.478-2.142-4.978-4.16c-1.789-2.34-2.683-5.416-2.683-9.231
		c0-1.698,0.158-3.478,0.476-5.337l2.986-17.936H12.19l1.947-12.021h8.222l1.688-9.76h14.541l-1.688,9.76L70.016,29.289z"/>
</g>
<polyline fill="#DCDCDC" points="34.319,41.205 53.81,43.289 33.764,47.447 46.726,49.27 35.109,51.955 40.56,55.205 31.968,57.333 
	"/>
<path fill="#DCDCDC" d="M35.489,60.505"/>
<g>
	<path fill="#DCDCDC" d="M344.777,33.483l-6.795,15.481c-0.779-1.505-1.646-2.789-2.597-3.846c-0.952-1.058-2.163-1.587-3.636-1.587
		c-2.827,0-5.425,2.26-7.79,6.78l-0.737,5.554l0.625,3.139l-1.445,3.029l2.966,4.971l-4.521,3.666l5.833,3.334l-6.149,2.102
		l12.149,2.191h-26.723l6.578-48.949h14.281l-0.909,7.021c3.952-5.257,7.472-7.886,10.56-7.886c1.615,0,3.052,0.44,4.306,1.322
		C342.029,30.687,343.363,31.913,344.777,33.483z"/>
</g>
</svg>
